STARTFONT 2.1
FONT -Adobe-Utopia-Regular-R-Normal--25-240-75-75-P-135-ISO8859-2
SIZE 24 75 75
FONTBOUNDINGBOX 32 26 -4 -5
STARTPROPERTIES 29
FOUNDRY "Adobe"
FAMILY_NAME "Utopia"
WEIGHT_NAME "Regular"
SLANT "R"
SETWIDTH_NAME "Normal"
ADD_STYLE_NAME ""
PIXEL_SIZE 25
POINT_SIZE 240
RESOLUTION_X 75
RESOLUTION_Y 75
SPACING "P"
AVERAGE_WIDTH 135
CHARSET_REGISTRY "ISO8859"
CHARSET_ENCODING "2"
CAP_HEIGHT 17
X_HEIGHT 12
RELATIVE_SETWIDTH 50
RELATIVE_WEIGHT 50
WEIGHT 136
FACE_NAME "Utopia Regular"
COPYRIGHT "Copyright (c) 1989, 1991 Adobe Systems Incorporated.  All rights reserved., Copyright 1996 Cub Soft"
NOTICE "Utopia is a registered trademark of Adobe Systems Incorporated."
DESTINATION 0
FONT_ASCENT 21
FONT_DESCENT 5
DEFAULT_CHAR 32
_ADOBE_PSFONT "Utopia-Regular"
_ADOBE_XFONT "-Adobe-Utopia-Regular-R-Normal--25-240-75-75-P-135-ISO8859-2"
_DEC_DEVICE_FONTNAMES "PS=Utopia-Regular"
ENDPROPERTIES
CHARS 191
STARTCHAR space
ENCODING 32
SWIDTH 225 0
DWIDTH 5 0
BBX 0 0 0 0
BITMAP
ENDCHAR
STARTCHAR exclam
ENCODING 33
SWIDTH 242 0
DWIDTH 6 0
BBX 4 17 1 0
BITMAP
60
60
60
60
60
60
60
60
60
60
60
00
00
00
60
f0
60
ENDCHAR
STARTCHAR quotedbl
ENCODING 34
SWIDTH 458 0
DWIDTH 11 0
BBX 6 7 3 10
BITMAP
cc
cc
cc
cc
cc
88
88
ENDCHAR
STARTCHAR numbersign
ENCODING 35
SWIDTH 530 0
DWIDTH 13 0
BBX 12 14 0 2
BITMAP
0c60
0c60
0c60
18c0
7ff0
18c0
18c0
3180
3180
ffe0
3180
6300
6300
6300
ENDCHAR
STARTCHAR dollar
ENCODING 36
SWIDTH 530 0
DWIDTH 13 0
BBX 11 22 1 -3
BITMAP
0400
0400
1f00
75c0
64c0
e400
e400
7400
7c00
3e00
0f80
07c0
05c0
04e0
04e0
04e0
c4c0
e5c0
3f00
0400
0400
0400
ENDCHAR
STARTCHAR percent
ENCODING 37
SWIDTH 838 0
DWIDTH 20 0
BBX 18 17 1 0
BITMAP
3c0600
67fc00
c30800
c31800
c31000
c32000
c36000
664000
3c8f00
019980
0130c0
0230c0
0630c0
0430c0
0830c0
181980
100f00
ENDCHAR
STARTCHAR ampersand
ENCODING 38
SWIDTH 706 0
DWIDTH 18 0
BBX 17 17 1 0
BITMAP
078000
1cc000
386000
386000
386000
1cc000
0f8000
1f0300
3b0380
718380
e1c300
e0e300
e07200
e03c00
701c00
383e00
0fc700
ENDCHAR
STARTCHAR apostrophe
ENCODING 39
SWIDTH 278 0
DWIDTH 7 0
BBX 4 6 1 11
BITMAP
60
f0
70
60
40
80
ENDCHAR
STARTCHAR parenleft
ENCODING 40
SWIDTH 350 0
DWIDTH 8 0
BBX 5 20 2 -3
BITMAP
18
30
60
60
c0
c0
c0
c0
c0
c0
c0
c0
c0
c0
c0
c0
60
60
30
18
ENDCHAR
STARTCHAR parenright
ENCODING 41
SWIDTH 350 0
DWIDTH 8 0
BBX 5 20 1 -3
BITMAP
c0
60
30
30
18
18
18
18
18
18
18
18
18
18
18
18
30
30
60
c0
ENDCHAR
STARTCHAR asterisk
ENCODING 42
SWIDTH 412 0
DWIDTH 10 0
BBX 9 9 0 8
BITMAP
0c00
0c00
c980
eb80
1c00
eb80
c980
1800
1800
ENDCHAR
STARTCHAR plus
ENCODING 43
SWIDTH 570 0
DWIDTH 14 0
BBX 12 12 1 0
BITMAP
0600
0600
0600
0600
0600
fff0
fff0
0600
0600
0600
0600
0600
ENDCHAR
STARTCHAR comma
ENCODING 44
SWIDTH 265 0
DWIDTH 7 0
BBX 4 6 1 -3
BITMAP
60
f0
70
20
40
80
ENDCHAR
STARTCHAR minus
ENCODING 45
SWIDTH 570 0
DWIDTH 14 0
BBX 12 2 1 5
BITMAP
fff0
fff0
ENDCHAR
STARTCHAR period
ENCODING 46
SWIDTH 265 0
DWIDTH 6 0
BBX 4 3 1 0
BITMAP
60
f0
60
ENDCHAR
STARTCHAR slash
ENCODING 47
SWIDTH 460 0
DWIDTH 11 0
BBX 7 17 2 0
BITMAP
06
06
06
0c
0c
0c
18
18
30
30
30
60
60
60
c0
c0
c0
ENDCHAR
STARTCHAR zero
ENCODING 48
SWIDTH 530 0
DWIDTH 13 0
BBX 11 17 1 0
BITMAP
0e00
3180
60c0
60c0
e0e0
e0e0
e0e0
e0e0
e0e0
e0e0
e0e0
e0e0
e0e0
60c0
60c0
3180
0e00
ENDCHAR
STARTCHAR one
ENCODING 49
SWIDTH 530 0
DWIDTH 13 0
BBX 9 17 2 0
BITMAP
0c00
3c00
fc00
1c00
1c00
1c00
1c00
1c00
1c00
1c00
1c00
1c00
1c00
1c00
1c00
1c00
ff80
ENDCHAR
STARTCHAR two
ENCODING 50
SWIDTH 530 0
DWIDTH 13 0
BBX 11 17 1 0
BITMAP
1f00
71c0
e0e0
e0e0
40e0
00e0
00e0
01c0
0180
0300
0600
1800
3000
6000
c020
ffe0
ffe0
ENDCHAR
STARTCHAR three
ENCODING 51
SWIDTH 530 0
DWIDTH 13 0
BBX 11 17 1 0
BITMAP
1f00
71c0
e0e0
e0e0
40e0
00e0
01c0
1f00
01c0
00e0
00e0
00e0
40e0
e0e0
e0e0
71c0
1f00
ENDCHAR
STARTCHAR four
ENCODING 52
SWIDTH 530 0
DWIDTH 13 0
BBX 11 17 1 0
BITMAP
0700
0700
0e00
0c80
1980
1b80
3380
2380
6380
4380
8380
ffe0
0380
0380
0380
0380
0fe0
ENDCHAR
STARTCHAR five
ENCODING 53
SWIDTH 530 0
DWIDTH 13 0
BBX 11 17 1 0
BITMAP
7fe0
7fc0
4000
4000
4000
4000
5f00
61c0
40e0
00e0
00e0
00e0
40e0
e0e0
e0e0
71c0
1f00
ENDCHAR
STARTCHAR six
ENCODING 54
SWIDTH 530 0
DWIDTH 13 0
BBX 11 17 1 0
BITMAP
0f00
31c0
60e0
60e0
e040
e000
e000
ef00
f1c0
e0c0
e0e0
e0e0
e0e0
60c0
60c0
3180
0e00
ENDCHAR
STARTCHAR seven
ENCODING 55
SWIDTH 530 0
DWIDTH 13 0
BBX 11 17 1 0
BITMAP
ffe0
ffe0
8040
0080
0180
0100
0200
0600
0400
0c00
0c00
1800
1800
3800
3800
3800
1000
ENDCHAR
STARTCHAR eight
ENCODING 56
SWIDTH 530 0
DWIDTH 13 0
BBX 11 17 1 0
BITMAP
1f00
71c0
60c0
e0e0
e0e0
60c0
71c0
1f00
71c0
60c0
e0e0
e0e0
e0e0
e0e0
60c0
71c0
1f00
ENDCHAR
STARTCHAR nine
ENCODING 57
SWIDTH 530 0
DWIDTH 13 0
BBX 11 17 1 0
BITMAP
0e00
3180
60c0
60c0
e0e0
e0e0
e0e0
60e0
71e0
1ee0
00e0
00e0
40e0
e0c0
e0c0
7180
1e00
ENDCHAR
STARTCHAR colon
ENCODING 58
SWIDTH 265 0
DWIDTH 6 0
BBX 4 13 1 0
BITMAP
60
f0
60
00
00
00
00
00
00
00
60
f0
60
ENDCHAR
STARTCHAR semicolon
ENCODING 59
SWIDTH 265 0
DWIDTH 6 0
BBX 4 16 1 -3
BITMAP
60
f0
60
00
00
00
00
00
00
00
60
f0
70
20
40
80
ENDCHAR
STARTCHAR less
ENCODING 60
SWIDTH 570 0
DWIDTH 14 0
BBX 12 12 1 0
BITMAP
0030
00f0
03c0
0f00
3c00
f000
f000
3c00
0f00
03c0
00f0
0030
ENDCHAR
STARTCHAR equal
ENCODING 61
SWIDTH 570 0
DWIDTH 14 0
BBX 12 8 1 2
BITMAP
fff0
fff0
0000
0000
0000
0000
fff0
fff0
ENDCHAR
STARTCHAR greater
ENCODING 62
SWIDTH 570 0
DWIDTH 14 0
BBX 12 12 1 0
BITMAP
c000
f000
3c00
0f00
03c0
00f0
00f0
03c0
0f00
3c00
f000
c000
ENDCHAR
STARTCHAR question
ENCODING 63
SWIDTH 389 0
DWIDTH 10 0
BBX 8 17 1 0
BITMAP
3c
ee
c7
07
07
06
0c
18
30
60
70
38
00
00
30
78
30
ENDCHAR
STARTCHAR at
ENCODING 64
SWIDTH 793 0
DWIDTH 22 0
BBX 18 18 2 0
BITMAP
00f800
030600
0c0100
180080
307c80
618c40
630c40
c61840
c61840
cc1840
cc3080
cc7080
ccb100
671e00
600000
300000
1c0400
07f800
ENDCHAR
STARTCHAR A
ENCODING 65
SWIDTH 635 0
DWIDTH 16 0
BBX 16 17 0 0
BITMAP
0180
0180
03c0
03c0
03c0
04e0
04e0
04e0
0870
0870
0ff0
1038
1038
3038
201c
201c
f87f
ENDCHAR
STARTCHAR B
ENCODING 66
SWIDTH 646 0
DWIDTH 16 0
BBX 14 17 1 0
BITMAP
ffc0
3870
3838
3838
3838
3838
3830
3860
3fe0
3838
381c
381c
381c
381c
381c
3838
ffe0
ENDCHAR
STARTCHAR C
ENCODING 67
SWIDTH 684 0
DWIDTH 17 0
BBX 15 17 1 0
BITMAP
07f8
1c0e
3806
7002
7000
e000
e000
e000
e000
e000
e000
e000
7000
7002
3806
1c0e
07f8
ENDCHAR
STARTCHAR D
ENCODING 68
SWIDTH 779 0
DWIDTH 19 0
BBX 17 17 1 0
BITMAP
fff000
381c00
380e00
380700
380700
380380
380380
380380
380380
380380
380380
380380
380700
380700
380e00
381c00
fff000
ENDCHAR
STARTCHAR E
ENCODING 69
SWIDTH 606 0
DWIDTH 15 0
BBX 13 17 1 0
BITMAP
fff0
3830
3810
3810
3800
3800
3820
3820
3fe0
3820
3820
3800
3800
3808
3808
3818
fff8
ENDCHAR
STARTCHAR F
ENCODING 70
SWIDTH 580 0
DWIDTH 14 0
BBX 12 17 1 0
BITMAP
fff0
3830
3810
3810
3800
3800
3820
3820
3fe0
3820
3820
3800
3800
3800
3800
3800
fe00
ENDCHAR
STARTCHAR G
ENCODING 71
SWIDTH 734 0
DWIDTH 18 0
BBX 17 17 1 0
BITMAP
07f800
1c0e00
380600
700200
700000
e00000
e00000
e00000
e00000
e00000
e01f80
e00700
700700
700700
380700
1c0f00
07f800
ENDCHAR
STARTCHAR H
ENCODING 72
SWIDTH 798 0
DWIDTH 20 0
BBX 18 17 1 0
BITMAP
fe1fc0
380700
380700
380700
380700
380700
380700
380700
3fff00
380700
380700
380700
380700
380700
380700
380700
fe1fc0
ENDCHAR
STARTCHAR I
ENCODING 73
SWIDTH 349 0
DWIDTH 9 0
BBX 7 17 1 0
BITMAP
fe
38
38
38
38
38
38
38
38
38
38
38
38
38
38
38
fe
ENDCHAR
STARTCHAR J
ENCODING 74
SWIDTH 350 0
DWIDTH 9 0
BBX 8 20 0 -3
BITMAP
7f
1c
1c
1c
1c
1c
1c
1c
1c
1c
1c
1c
1c
1c
1c
1c
1c
18
30
c0
ENDCHAR
STARTCHAR K
ENCODING 75
SWIDTH 658 0
DWIDTH 17 0
BBX 16 17 1 0
BITMAP
fe3f
381c
3830
3860
38c0
3980
3b00
3f00
3b80
39c0
39e0
38e0
3870
3878
383c
381e
fe0f
ENDCHAR
STARTCHAR L
ENCODING 76
SWIDTH 568 0
DWIDTH 15 0
BBX 13 17 1 0
BITMAP
fe00
3800
3800
3800
3800
3800
3800
3800
3800
3800
3800
3800
3800
3808
3808
3818
fff8
ENDCHAR
STARTCHAR M
ENCODING 77
SWIDTH 944 0
DWIDTH 23 0
BBX 21 17 1 0
BITMAP
f800f8
3800e0
3c01e0
3c01e0
2e02e0
2e02e0
2704e0
2704e0
2388e0
2388e0
21d0e0
21d0e0
20e0e0
20e0e0
2040e0
3040e0
fc03f8
ENDCHAR
STARTCHAR N
ENCODING 78
SWIDTH 780 0
DWIDTH 19 0
BBX 17 17 1 0
BITMAP
f01f80
380600
3c0200
3c0200
2e0200
270200
278200
238200
21c200
21e200
20e200
207200
203a00
203e00
201e00
300e00
fc0600
ENDCHAR
STARTCHAR O
ENCODING 79
SWIDTH 762 0
DWIDTH 19 0
BBX 17 17 1 0
BITMAP
07f000
1c1c00
380e00
700700
700700
e00380
e00380
e00380
e00380
e00380
e00380
e00380
700700
700700
380e00
1c1c00
07f000
ENDCHAR
STARTCHAR P
ENCODING 80
SWIDTH 600 0
DWIDTH 15 0
BBX 13 17 1 0
BITMAP
ffc0
3870
3838
3838
3838
3838
3838
3838
3870
3fc0
3800
3800
3800
3800
3800
3800
fe00
ENDCHAR
STARTCHAR Q
ENCODING 81
SWIDTH 762 0
DWIDTH 19 0
BBX 17 21 1 -4
BITMAP
07f000
1c1c00
380e00
700700
700700
e00380
e00380
e00380
e00380
e00380
e00380
e00380
700700
700700
380e00
1c1c00
07f000
00e000
00e000
007800
001f00
ENDCHAR
STARTCHAR R
ENCODING 82
SWIDTH 644 0
DWIDTH 16 0
BBX 15 17 1 0
BITMAP
ffc0
3870
3838
3838
3838
3838
3830
3860
3fc0
38e0
3870
3870
3870
3838
3838
3838
fe1e
ENDCHAR
STARTCHAR S
ENCODING 83
SWIDTH 541 0
DWIDTH 14 0
BBX 12 17 1 0
BITMAP
1f80
70e0
c060
c020
c000
e000
f800
7f00
1fc0
07e0
00f0
0070
0030
8030
c030
e0e0
3f80
ENDCHAR
STARTCHAR T
ENCODING 84
SWIDTH 621 0
DWIDTH 15 0
BBX 15 17 0 0
BITMAP
fffe
c386
8382
8382
0380
0380
0380
0380
0380
0380
0380
0380
0380
0380
0380
0380
0fe0
ENDCHAR
STARTCHAR U
ENCODING 85
SWIDTH 791 0
DWIDTH 20 0
BBX 18 17 1 0
BITMAP
fe1fc0
380700
380700
380700
380700
380700
380700
380700
380700
380700
380700
380700
380700
380700
180600
0c0c00
03f000
ENDCHAR
STARTCHAR V
ENCODING 86
SWIDTH 634 0
DWIDTH 16 0
BBX 16 17 0 0
BITMAP
fe1f
3804
3804
1c08
1c08
1c08
0e10
0e10
0e10
0720
0720
0720
03c0
03c0
03c0
0180
0180
ENDCHAR
STARTCHAR W
ENCODING 87
SWIDTH 940 0
DWIDTH 24 0
BBX 24 17 0 0
BITMAP
fe0c1f
380c04
381e04
381e04
1c1608
1c1608
1c2708
1c2708
0e2710
0e4390
0e4390
0e4390
0781e0
0781e0
0781e0
0300c0
0300c0
ENDCHAR
STARTCHAR X
ENCODING 88
SWIDTH 624 0
DWIDTH 16 0
BBX 16 17 0 0
BITMAP
fe1f
3804
1c08
1c10
0e10
0720
0740
03c0
0180
03c0
02e0
04e0
0870
0838
1038
201c
f87f
ENDCHAR
STARTCHAR Y
ENCODING 89
SWIDTH 588 0
DWIDTH 16 0
BBX 16 17 0 0
BITMAP
fe1f
3804
1c08
1c08
0e10
0e10
0720
0720
03c0
03c0
01c0
01c0
01c0
01c0
01c0
01c0
07f0
ENDCHAR
STARTCHAR Z
ENCODING 90
SWIDTH 610 0
DWIDTH 15 0
BBX 13 17 1 0
BITMAP
fff8
c038
8070
8070
00e0
01c0
01c0
0380
0700
0700
0e00
1c00
1c00
3800
7008
7018
fff8
ENDCHAR
STARTCHAR bracketleft
ENCODING 91
SWIDTH 330 0
DWIDTH 8 0
BBX 4 20 3 -3
BITMAP
f0
c0
c0
c0
c0
c0
c0
c0
c0
c0
c0
c0
c0
c0
c0
c0
c0
c0
c0
f0
ENDCHAR
STARTCHAR backslash
ENCODING 92
SWIDTH 460 0
DWIDTH 11 0
BBX 7 17 2 0
BITMAP
c0
c0
c0
60
60
60
30
30
18
18
18
0c
0c
0c
06
06
06
ENDCHAR
STARTCHAR bracketright
ENCODING 93
SWIDTH 330 0
DWIDTH 8 0
BBX 4 20 1 -3
BITMAP
f0
30
30
30
30
30
30
30
30
30
30
30
30
30
30
30
30
30
30
f0
ENDCHAR
STARTCHAR asciicircum
ENCODING 94
SWIDTH 570 0
DWIDTH 14 0
BBX 12 12 1 5
BITMAP
0600
0600
0f00
0f00
1980
1980
30c0
30c0
6060
6060
c030
c030
ENDCHAR
STARTCHAR underscore
ENCODING 95
SWIDTH 500 0
DWIDTH 12 0
BBX 12 1 0 -3
BITMAP
fff0
ENDCHAR
STARTCHAR grave
ENCODING 96
SWIDTH 400 0
DWIDTH 10 0
BBX 6 5 2 14
BITMAP
c0
e0
70
18
04
ENDCHAR
STARTCHAR a
ENCODING 97
SWIDTH 523 0
DWIDTH 14 0
BBX 13 13 1 0
BITMAP
3f80
71c0
60e0
00e0
00e0
03e0
1ee0
70e0
e0e0
e0e0
e0e0
f1f8
3e60
ENDCHAR
STARTCHAR b
ENCODING 98
SWIDTH 598 0
DWIDTH 15 0
BBX 13 19 1 0
BITMAP
3000
f000
7000
7000
7000
7000
77c0
7870
7070
7038
7038
7038
7038
7038
7038
7038
7070
7870
47c0
ENDCHAR
STARTCHAR c
ENCODING 99
SWIDTH 496 0
DWIDTH 12 0
BBX 11 13 1 0
BITMAP
1f80
71c0
70c0
e000
e000
e000
e000
e000
e000
e000
7060
70c0
1f00
ENDCHAR
STARTCHAR d
ENCODING 100
SWIDTH 598 0
DWIDTH 15 0
BBX 13 19 1 0
BITMAP
0030
00f0
0070
0070
0070
0070
1f70
70f0
7070
e070
e070
e070
e070
e070
e070
e070
7070
70f0
1f38
ENDCHAR
STARTCHAR e
ENCODING 101
SWIDTH 514 0
DWIDTH 13 0
BBX 11 13 1 0
BITMAP
1f00
71c0
71c0
e0e0
e0e0
ffe0
e000
e000
e000
e000
7060
70c0
1f00
ENDCHAR
STARTCHAR f
ENCODING 102
SWIDTH 319 0
DWIDTH 8 0
BBX 9 19 0 0
BITMAP
0f00
1b80
3900
3800
3800
3800
ff00
3800
3800
3800
3800
3800
3800
3800
3800
3800
3800
3800
fe00
ENDCHAR
STARTCHAR g
ENCODING 103
SWIDTH 520 0
DWIDTH 13 0
BBX 13 18 0 -5
BITMAP
0f98
38f8
7060
7070
7070
7070
38e0
0f80
1800
3800
3f00
1fe0
33f0
6078
e038
e038
7070
1fc0
ENDCHAR
STARTCHAR h
ENCODING 104
SWIDTH 607 0
DWIDTH 16 0
BBX 16 19 0 0
BITMAP
1800
7800
3800
3800
3800
3800
38f8
3b3c
3c1c
381c
381c
381c
381c
381c
381c
381c
381c
381c
fe7f
ENDCHAR
STARTCHAR i
ENCODING 105
SWIDTH 291 0
DWIDTH 7 0
BBX 7 17 0 0
BITMAP
30
78
30
00
18
78
38
38
38
38
38
38
38
38
38
38
fe
ENDCHAR
STARTCHAR j
ENCODING 106
SWIDTH 280 0
DWIDTH 7 0
BBX 6 22 -1 -5
BITMAP
18
3c
18
00
0c
3c
1c
1c
1c
1c
1c
1c
1c
1c
1c
1c
1c
1c
1c
18
38
e0
ENDCHAR
STARTCHAR k
ENCODING 107
SWIDTH 524 0
DWIDTH 13 0
BBX 14 19 0 0
BITMAP
1800
7800
3800
3800
3800
3800
3878
38f0
39c0
3980
3b00
3e00
3f00
3b80
39c0
39e0
38f0
3878
fe3c
ENDCHAR
STARTCHAR l
ENCODING 108
SWIDTH 279 0
DWIDTH 7 0
BBX 7 19 0 0
BITMAP
18
78
38
38
38
38
38
38
38
38
38
38
38
38
38
38
38
38
fe
ENDCHAR
STARTCHAR m
ENCODING 109
SWIDTH 923 0
DWIDTH 23 0
BBX 23 13 0 0
BITMAP
19e1e0
7a7a70
3c3c38
383838
383838
383838
383838
383838
383838
383838
383838
383838
fefefe
ENDCHAR
STARTCHAR n
ENCODING 110
SWIDTH 619 0
DWIDTH 15 0
BBX 16 13 0 0
BITMAP
18f0
7b38
3c1c
381c
381c
381c
381c
381c
381c
381c
381c
381c
fe7f
ENDCHAR
STARTCHAR o
ENCODING 111
SWIDTH 577 0
DWIDTH 14 0
BBX 12 13 1 0
BITMAP
1f80
70e0
70e0
e070
e070
e070
e070
e070
e070
e070
70e0
70e0
1f80
ENDCHAR
STARTCHAR p
ENCODING 112
SWIDTH 608 0
DWIDTH 15 0
BBX 14 18 0 -5
BITMAP
33e0
7c38
3838
381c
381c
381c
381c
381c
381c
381c
3838
3c38
3be0
3800
3800
3800
3800
fe00
ENDCHAR
STARTCHAR q
ENCODING 113
SWIDTH 591 0
DWIDTH 15 0
BBX 14 19 1 -5
BITMAP
0010
1f30
70f0
7070
e070
e070
e070
e070
e070
e070
e070
7070
70f0
1f70
0070
0070
0070
0070
01fc
ENDCHAR
STARTCHAR r
ENCODING 114
SWIDTH 389 0
DWIDTH 10 0
BBX 10 13 0 0
BITMAP
1980
7bc0
3d80
3800
3800
3800
3800
3800
3800
3800
3800
3800
fe00
ENDCHAR
STARTCHAR s
ENCODING 115
SWIDTH 436 0
DWIDTH 11 0
BBX 9 13 1 0
BITMAP
3f00
6300
c100
c000
e000
f800
7f00
0f80
0380
8180
c180
e300
7e00
ENDCHAR
STARTCHAR t
ENCODING 116
SWIDTH 344 0
DWIDTH 9 0
BBX 8 16 0 0
BITMAP
08
18
38
ff
38
38
38
38
38
38
38
38
38
38
39
1e
ENDCHAR
STARTCHAR u
ENCODING 117
SWIDTH 606 0
DWIDTH 15 0
BBX 14 13 0 0
BITMAP
3018
f078
7038
7038
7038
7038
7038
7038
7038
7038
7078
39b8
1e3c
ENDCHAR
STARTCHAR v
ENCODING 118
SWIDTH 504 0
DWIDTH 13 0
BBX 13 13 0 0
BITMAP
f838
7010
7010
3820
3820
3820
1c40
1c40
0e80
0e80
0f80
0700
0700
ENDCHAR
STARTCHAR w
ENCODING 119
SWIDTH 768 0
DWIDTH 19 0
BBX 19 13 0 0
BITMAP
f870e0
707040
707040
707040
38b880
38b880
38b880
1d1d00
1d1d00
1d1d00
0e0e00
0e0e00
0e0e00
ENDCHAR
STARTCHAR x
ENCODING 120
SWIDTH 486 0
DWIDTH 12 0
BBX 12 13 0 0
BITMAP
fcf0
3860
1c40
1c80
0e80
0f00
0700
0780
0b80
09c0
11c0
30e0
f9f0
ENDCHAR
STARTCHAR y
ENCODING 121
SWIDTH 506 0
DWIDTH 13 0
BBX 13 18 0 -5
BITMAP
f838
7010
7010
3820
3820
1c40
1c40
1c40
0e80
0e80
0700
0700
0600
0600
0400
cc00
f800
7000
ENDCHAR
STARTCHAR z
ENCODING 122
SWIDTH 480 0
DWIDTH 12 0
BBX 10 13 1 0
BITMAP
ffc0
c1c0
8380
0380
0700
0e00
0e00
1c00
3800
3800
7040
e0c0
ffc0
ENDCHAR
STARTCHAR braceleft
ENCODING 123
SWIDTH 340 0
DWIDTH 8 0
BBX 6 20 1 -3
BITMAP
0c
10
30
30
30
30
30
30
20
c0
20
30
30
30
30
30
30
30
10
0c
ENDCHAR
STARTCHAR bar
ENCODING 124
SWIDTH 228 0
DWIDTH 6 0
BBX 2 17 2 0
BITMAP
c0
c0
c0
c0
c0
c0
c0
c0
c0
c0
c0
c0
c0
c0
c0
c0
c0
ENDCHAR
STARTCHAR braceright
ENCODING 125
SWIDTH 340 0
DWIDTH 8 0
BBX 6 20 1 -3
BITMAP
c0
20
30
30
30
30
30
30
10
0c
10
30
30
30
30
30
30
30
20
c0
ENDCHAR
STARTCHAR asciitilde
ENCODING 126
SWIDTH 570 0
DWIDTH 14 0
BBX 12 3 1 5
BITMAP
3c10
7fe0
83c0
ENDCHAR
STARTCHAR nobreakspace
ENCODING 160
SWIDTH 225 0
DWIDTH 5 0
BBX 0 0 0 0
BITMAP
ENDCHAR
STARTCHAR Aogonek
ENCODING 161
SWIDTH 635 0
DWIDTH 16 0
BBX 16 22 0 -5
BITMAP
0180
0180
03c0
03c0
03c0
04e0
04e0
04e0
0870
0870
0ff0
1038
1038
3038
201c
201c
f87f
0080
0100
0300
0300
01c0
ENDCHAR
STARTCHAR breve
ENCODING 162
SWIDTH 400 0
DWIDTH 10 0
BBX 8 4 1 14
BITMAP
81
c3
7e
3c
ENDCHAR
STARTCHAR Lstroke
ENCODING 163
SWIDTH 574 0
DWIDTH 15 0
BBX 13 17 1 0
BITMAP
fe00
3800
3800
3800
3800
3900
3a00
3c00
3800
3800
7800
b800
3800
3808
3808
3818
fff8
ENDCHAR
STARTCHAR currency
ENCODING 164
SWIDTH 530 0
DWIDTH 13 0
BBX 11 12 1 3
BITMAP
c060
df60
71c0
60c0
c060
c060
c060
c060
60c0
71c0
df60
c060
ENDCHAR
STARTCHAR Lcaron
ENCODING 165
SWIDTH 568 0
DWIDTH 15 0
BBX 13 19 1 0
BITMAP
0060
00f0
fe70
3860
3840
3880
3800
3800
3800
3800
3800
3800
3800
3800
3800
3808
3808
3818
fff8
ENDCHAR
STARTCHAR Sacute
ENCODING 166
SWIDTH 541 0
DWIDTH 14 0
BBX 12 23 1 0
BITMAP
0060
00e0
01c0
0300
0400
0000
1f80
70e0
c060
c020
c000
e000
f800
7f00
1fc0
07e0
00f0
0070
0030
8030
c030
e0e0
3f80
ENDCHAR
STARTCHAR section
ENCODING 167
SWIDTH 554 0
DWIDTH 13 0
BBX 11 21 1 -3
BITMAP
0f80
19c0
30c0
3000
3800
7e00
cf80
83c0
80e0
c060
e020
7820
3e20
0f60
03c0
01c0
00c0
00c0
30c0
3980
1f00
ENDCHAR
STARTCHAR diaeresis
ENCODING 168
SWIDTH 400 0
DWIDTH 10 0
BBX 9 3 0 14
BITMAP
6300
f780
6300
ENDCHAR
STARTCHAR Scaron
ENCODING 169
SWIDTH 541 0
DWIDTH 14 0
BBX 12 22 1 0
BITMAP
30c0
1980
0f00
0600
0000
1f80
70e0
c060
c020
c000
e000
f800
7f00
1fc0
07e0
00f0
0070
0030
8030
c030
e0e0
3f80
ENDCHAR
STARTCHAR Scedilla
ENCODING 170
SWIDTH 541 0
DWIDTH 14 0
BBX 12 22 1 -5
BITMAP
1f80
70e0
c060
c020
c000
e000
f800
7f00
1fc0
07e0
00f0
0070
0030
8030
c030
e0e0
3f80
0200
0600
0300
0300
0e00
ENDCHAR
STARTCHAR Tcaron
ENCODING 171
SWIDTH 621 0
DWIDTH 15 0
BBX 15 22 0 0
BITMAP
0c30
0660
03c0
0180
0000
fffe
c386
8382
8382
0380
0380
0380
0380
0380
0380
0380
0380
0380
0380
0380
0380
0fe0
ENDCHAR
STARTCHAR Zacute
ENCODING 172
SWIDTH 610 0
DWIDTH 15 0
BBX 13 23 1 0
BITMAP
0030
0070
00e0
0180
0200
0000
fff8
c038
8070
8070
00e0
01c0
01c0
0380
0700
0700
0e00
1c00
1c00
3800
7008
7018
fff8
ENDCHAR
STARTCHAR hyphen
ENCODING 173
SWIDTH 392 0
DWIDTH 10 0
BBX 6 2 2 5
BITMAP
fc
fc
ENDCHAR
STARTCHAR Zcaron
ENCODING 174
SWIDTH 610 0
DWIDTH 15 0
BBX 13 22 1 0
BITMAP
1860
0cc0
0780
0300
0000
fff8
c038
8070
8070
00e0
01c0
01c0
0380
0700
0700
0e00
1c00
1c00
3800
7008
7018
fff8
ENDCHAR
STARTCHAR Zabovedot
ENCODING 175
SWIDTH 610 0
DWIDTH 15 0
BBX 13 21 1 0
BITMAP
0300
0780
0300
0000
fff8
c038
8070
8070
00e0
01c0
01c0
0380
0700
0700
0e00
1c00
1c00
3800
7008
7018
fff8
ENDCHAR
STARTCHAR degree
ENCODING 176
SWIDTH 350 0
DWIDTH 10 0
BBX 6 6 2 11
BITMAP
78
cc
84
84
cc
78
ENDCHAR
STARTCHAR aogonek
ENCODING 177
SWIDTH 523 0
DWIDTH 14 0
BBX 13 18 1 -5
BITMAP
3f80
71c0
60e0
00e0
00e0
03e0
1ee0
70e0
e0e0
e0e0
e0e0
f1f8
3e60
0100
0200
0600
0600
0380
ENDCHAR
STARTCHAR ogonek
ENCODING 178
SWIDTH 400 0
DWIDTH 10 0
BBX 4 5 3 -5
BITMAP
20
40
c0
c0
70
ENDCHAR
STARTCHAR lstroke
ENCODING 179
SWIDTH 294 0
DWIDTH 7 0
BBX 7 19 0 0
BITMAP
18
78
38
38
38
38
3a
3c
38
38
78
b8
38
38
38
38
38
38
fe
ENDCHAR
STARTCHAR acute
ENCODING 180
SWIDTH 400 0
DWIDTH 10 0
BBX 6 5 2 14
BITMAP
0c
1c
38
60
80
ENDCHAR
STARTCHAR lcaron
ENCODING 181
SWIDTH 400 0
DWIDTH 10 0
BBX 10 21 0 0
BITMAP
0180
03c0
19c0
7980
3900
3a00
3800
3800
3800
3800
3800
3800
3800
3800
3800
3800
3800
3800
3800
3800
fe00
ENDCHAR
STARTCHAR sacute
ENCODING 182
SWIDTH 436 0
DWIDTH 11 0
BBX 9 19 1 0
BITMAP
0180
0380
0700
0c00
1000
0000
3f00
6300
c100
c000
e000
f800
7f00
0f80
0380
8180
c180
e300
7e00
ENDCHAR
STARTCHAR caron
ENCODING 183
SWIDTH 400 0
DWIDTH 10 0
BBX 8 4 1 14
BITMAP
c3
66
3c
18
ENDCHAR
STARTCHAR cedilla
ENCODING 184
SWIDTH 400 0
DWIDTH 10 0
BBX 4 5 3 -5
BITMAP
20
60
30
30
e0
ENDCHAR
STARTCHAR scaron
ENCODING 185
SWIDTH 436 0
DWIDTH 11 0
BBX 9 18 1 0
BITMAP
c300
6600
3c00
1800
0000
3f00
6300
c100
c000
e000
f800
7f00
0f80
0380
8180
c180
e300
7e00
ENDCHAR
STARTCHAR scedilla
ENCODING 186
SWIDTH 436 0
DWIDTH 11 0
BBX 9 18 1 -5
BITMAP
3f00
6300
c100
c000
e000
f800
7f00
0f80
0380
8180
c180
e300
7e00
0400
0c00
0600
0600
1c00
ENDCHAR
STARTCHAR tcaron
ENCODING 187
SWIDTH 440 0
DWIDTH 11 0
BBX 10 20 0 0
BITMAP
0180
03c0
01c0
0180
0900
1a00
3800
ff00
3800
3800
3800
3800
3800
3800
3800
3800
3800
3800
3900
1e00
ENDCHAR
STARTCHAR zacute
ENCODING 188
SWIDTH 480 0
DWIDTH 12 0
BBX 10 19 1 0
BITMAP
00c0
01c0
0380
0600
0800
0000
ffc0
c1c0
8380
0380
0700
0e00
0e00
1c00
3800
3800
7040
e0c0
ffc0
ENDCHAR
STARTCHAR doubleacute
ENCODING 189
SWIDTH 400 0
DWIDTH 10 0
BBX 7 5 1 14
BITMAP
66
66
cc
cc
88
ENDCHAR
STARTCHAR zcaron
ENCODING 190
SWIDTH 480 0
DWIDTH 12 0
BBX 10 18 1 0
BITMAP
6180
3300
1e00
0c00
0000
ffc0
c1c0
8380
0380
0700
0e00
0e00
1c00
3800
3800
7040
e0c0
ffc0
ENDCHAR
STARTCHAR zabovedot
ENCODING 191
SWIDTH 480 0
DWIDTH 12 0
BBX 10 17 1 0
BITMAP
0c00
1e00
0c00
0000
ffc0
c1c0
8380
0380
0700
0e00
0e00
1c00
3800
3800
7040
e0c0
ffc0
ENDCHAR
STARTCHAR Racute
ENCODING 192
SWIDTH 644 0
DWIDTH 16 0
BBX 15 23 1 0
BITMAP
0030
0070
00e0
0180
0200
0000
ffc0
3870
3838
3838
3838
3838
3830
3860
3fc0
38e0
3870
3870
3870
3838
3838
3838
fe1e
ENDCHAR
STARTCHAR Aacute
ENCODING 193
SWIDTH 635 0
DWIDTH 16 0
BBX 16 21 0 0
BITMAP
0030
0070
00e0
0180
0200
0000
0180
0380
03c0
03c0
04e0
04e0
04e0
0870
0870
1ff8
1038
1038
201c
201c
f87f
ENDCHAR
STARTCHAR Acircumflex
ENCODING 194
SWIDTH 635 0
DWIDTH 16 0
BBX 16 20 0 0
BITMAP
0180
03c0
0660
0c30
0000
0180
0380
03c0
03c0
04e0
04e0
04e0
0870
0870
1ff8
1038
1038
201c
201c
f87f
ENDCHAR
STARTCHAR Abreve
ENCODING 195
SWIDTH 635 0
DWIDTH 16 0
BBX 16 22 0 0
BITMAP
0810
0c30
07e0
03c0
0000
0180
0180
03c0
03c0
03c0
04e0
04e0
04e0
0870
0870
0ff0
1038
1038
3038
201c
201c
f87f
ENDCHAR
STARTCHAR Adiaeresis
ENCODING 196
SWIDTH 635 0
DWIDTH 16 0
BBX 16 19 0 0
BITMAP
0c60
1ef0
0c60
0000
0180
0380
03c0
03c0
04e0
04e0
04e0
0870
0870
1ff8
1038
1038
201c
201c
f87f
ENDCHAR
STARTCHAR Lacute
ENCODING 197
SWIDTH 568 0
DWIDTH 15 0
BBX 13 23 1 0
BITMAP
0180
0380
0700
0c00
1000
0000
fe00
3800
3800
3800
3800
3800
3800
3800
3800
3800
3800
3800
3800
3808
3808
3818
fff8
ENDCHAR
STARTCHAR Cacute
ENCODING 198
SWIDTH 684 0
DWIDTH 17 0
BBX 15 23 1 0
BITMAP
000c
001c
0038
0060
0080
0000
07f8
1c0e
3806
7002
7000
e000
e000
e000
e000
e000
e000
e000
7000
7002
3806
1c0e
07f8
ENDCHAR
STARTCHAR Ccedilla
ENCODING 199
SWIDTH 680 0
DWIDTH 17 0
BBX 15 22 1 -5
BITMAP
07f8
1c0e
3806
7002
7000
e000
e000
e000
e000
e000
e000
e000
7000
7002
3806
1c0e
07f8
0080
0180
00c0
00c0
0380
ENDCHAR
STARTCHAR Ccaron
ENCODING 200
SWIDTH 684 0
DWIDTH 17 0
BBX 15 22 1 0
BITMAP
0618
0330
01e0
00c0
0000
07f8
1c0e
3806
7002
7000
e000
e000
e000
e000
e000
e000
e000
7000
7002
3806
1c0e
07f8
ENDCHAR
STARTCHAR Eacute
ENCODING 201
SWIDTH 606 0
DWIDTH 15 0
BBX 13 21 1 0
BITMAP
00c0
01c0
0380
0600
0800
0000
fff0
3830
3810
3810
3800
3820
3820
3fe0
3820
3820
3800
3808
3808
3818
fff8
ENDCHAR
STARTCHAR Eogonek
ENCODING 202
SWIDTH 606 0
DWIDTH 15 0
BBX 13 22 1 -5
BITMAP
fff0
3830
3810
3810
3800
3800
3820
3820
3fe0
3820
3820
3800
3800
3808
3808
3818
fff8
0100
0200
0600
0600
0380
ENDCHAR
STARTCHAR Ediaeresis
ENCODING 203
SWIDTH 606 0
DWIDTH 15 0
BBX 13 19 1 0
BITMAP
18c0
3de0
18c0
0000
fff0
3830
3810
3810
3800
3820
3820
3fe0
3820
3820
3800
3808
3808
3818
fff8
ENDCHAR
STARTCHAR Ecaron
ENCODING 204
SWIDTH 606 0
DWIDTH 15 0
BBX 13 22 1 0
BITMAP
30c0
1980
0f00
0600
0000
fff0
3830
3810
3810
3800
3800
3820
3820
3fe0
3820
3820
3800
3800
3808
3808
3818
fff8
ENDCHAR
STARTCHAR Iacute
ENCODING 205
SWIDTH 349 0
DWIDTH 9 0
BBX 7 21 1 0
BITMAP
06
0e
1c
30
40
00
fe
38
38
38
38
38
38
38
38
38
38
38
38
38
fe
ENDCHAR
STARTCHAR Icircumflex
ENCODING 206
SWIDTH 349 0
DWIDTH 9 0
BBX 8 20 1 0
BITMAP
18
3c
66
c3
00
fe
38
38
38
38
38
38
38
38
38
38
38
38
38
fe
ENDCHAR
STARTCHAR Dcaron
ENCODING 207
SWIDTH 779 0
DWIDTH 19 0
BBX 17 22 1 0
BITMAP
0c3000
066000
03c000
018000
000000
fff000
381c00
380e00
380700
380700
380380
380380
380380
380380
380380
380380
380380
380700
380700
380e00
381c00
fff000
ENDCHAR
STARTCHAR Dstroke
ENCODING 208
SWIDTH 785 0
DWIDTH 19 0
BBX 17 17 1 0
BITMAP
fff000
381c00
380e00
380700
380700
380380
380380
380380
ff0380
380380
380380
380380
380700
380700
380e00
381c00
fff000
ENDCHAR
STARTCHAR Nacute
ENCODING 209
SWIDTH 780 0
DWIDTH 19 0
BBX 17 23 1 0
BITMAP
000c00
001c00
003800
006000
008000
000000
f01f80
380600
3c0200
3c0200
2e0200
270200
278200
238200
21c200
21e200
20e200
207200
203a00
203e00
201e00
300e00
fc0600
ENDCHAR
STARTCHAR Ncaron
ENCODING 210
SWIDTH 780 0
DWIDTH 19 0
BBX 17 22 1 0
BITMAP
061800
033000
01e000
00c000
000000
f01f80
380600
3c0200
3c0200
2e0200
270200
278200
238200
21c200
21e200
20e200
207200
203a00
203e00
201e00
300e00
fc0600
ENDCHAR
STARTCHAR Oacute
ENCODING 211
SWIDTH 762 0
DWIDTH 19 0
BBX 17 21 1 0
BITMAP
001800
003800
007000
00c000
010000
000000
07f000
1c1c00
380e00
700700
700700
e00380
e00380
e00380
e00380
e00380
700700
700700
380e00
1c1c00
07f000
ENDCHAR
STARTCHAR Ocircumflex
ENCODING 212
SWIDTH 762 0
DWIDTH 19 0
BBX 17 20 1 0
BITMAP
018000
03c000
066000
0c3000
000000
07f000
1c1c00
380e00
700700
700700
e00380
e00380
e00380
e00380
e00380
700700
700700
380e00
1c1c00
07f000
ENDCHAR
STARTCHAR Odoubleacute
ENCODING 213
SWIDTH 762 0
DWIDTH 19 0
BBX 17 23 1 0
BITMAP
019800
019800
033000
033000
022000
000000
07f000
1c1c00
380e00
700700
700700
e00380
e00380
e00380
e00380
e00380
e00380
e00380
700700
700700
380e00
1c1c00
07f000
ENDCHAR
STARTCHAR Odiaeresis
ENCODING 214
SWIDTH 762 0
DWIDTH 19 0
BBX 17 19 1 0
BITMAP
063000
0f7800
063000
000000
07f000
1c1c00
380e00
700700
700700
e00380
e00380
e00380
e00380
e00380
700700
700700
380e00
1c1c00
07f000
ENDCHAR
STARTCHAR multiply
ENCODING 215
SWIDTH 570 0
DWIDTH 14 0
BBX 12 12 1 1
BITMAP
4020
e070
70e0
39c0
1f80
0f00
0f00
1f80
39c0
70e0
e070
4020
ENDCHAR
STARTCHAR Rcaron
ENCODING 216
SWIDTH 644 0
DWIDTH 16 0
BBX 15 22 1 0
BITMAP
1860
0cc0
0780
0300
0000
ffc0
3870
3838
3838
3838
3838
3830
3860
3fc0
38e0
3870
3870
3870
3838
3838
3838
fe1e
ENDCHAR
STARTCHAR Uring
ENCODING 217
SWIDTH 791 0
DWIDTH 20 0
BBX 18 23 1 0
BITMAP
01c000
036000
022000
036000
01c000
000000
fe1fc0
380700
380700
380700
380700
380700
380700
380700
380700
380700
380700
380700
380700
380700
180600
0c0c00
03f000
ENDCHAR
STARTCHAR Uacute
ENCODING 218
SWIDTH 791 0
DWIDTH 20 0
BBX 18 21 1 0
BITMAP
003000
007000
00e000
018000
020000
000000
fe1fc0
380700
380700
380700
380700
380700
380700
380700
380700
380700
380700
380700
180600
0c0c00
03f000
ENDCHAR
STARTCHAR Udoubleacute
ENCODING 219
SWIDTH 791 0
DWIDTH 20 0
BBX 18 23 1 0
BITMAP
019800
019800
033000
033000
022000
000000
fe1fc0
380700
380700
380700
380700
380700
380700
380700
380700
380700
380700
380700
380700
380700
180600
0c0c00
03f000
ENDCHAR
STARTCHAR Udiaeresis
ENCODING 220
SWIDTH 791 0
DWIDTH 20 0
BBX 18 19 1 0
BITMAP
063000
0f7800
063000
000000
fe1fc0
380700
380700
380700
380700
380700
380700
380700
380700
380700
380700
380700
180600
0c0c00
03f000
ENDCHAR
STARTCHAR Yacute
ENCODING 221
SWIDTH 588 0
DWIDTH 16 0
BBX 16 21 0 0
BITMAP
0018
0038
0070
00c0
0100
0000
fe1f
3804
1c08
1c08
0e10
0720
0720
03c0
01c0
01c0
01c0
01c0
01c0
01c0
07f0
ENDCHAR
STARTCHAR Tcedilla
ENCODING 222
SWIDTH 621 0
DWIDTH 15 0
BBX 15 22 0 -5
BITMAP
fffe
c386
8382
8382
0380
0380
0380
0380
0380
0380
0380
0380
0380
0380
0380
0380
0fe0
0080
0180
00c0
00c0
0380
ENDCHAR
STARTCHAR ssharp
ENCODING 223
SWIDTH 601 0
DWIDTH 17 0
BBX 15 19 1 0
BITMAP
07c0
0c60
1830
3830
3830
3870
38e0
39c0
39c0
39e0
38f0
3878
383c
381e
380e
380e
398e
399c
fef0
ENDCHAR
STARTCHAR racute
ENCODING 224
SWIDTH 389 0
DWIDTH 10 0
BBX 11 19 0 0
BITMAP
0060
00e0
01c0
0300
0400
0000
1980
7bc0
3d80
3800
3800
3800
3800
3800
3800
3800
3800
3800
fe00
ENDCHAR
STARTCHAR aacute
ENCODING 225
SWIDTH 523 0
DWIDTH 14 0
BBX 13 19 1 0
BITMAP
0180
0380
0700
0c00
1000
0000
3f80
71c0
60e0
00e0
00e0
03e0
1ee0
70e0
e0e0
e0e0
e0e0
f1f8
3e60
ENDCHAR
STARTCHAR acircumflex
ENCODING 226
SWIDTH 523 0
DWIDTH 14 0
BBX 13 18 1 0
BITMAP
0600
0f00
1980
30c0
0000
3f80
71c0
60e0
00e0
00e0
03e0
1ee0
70e0
e0e0
e0e0
e0e0
f1f8
3e60
ENDCHAR
STARTCHAR abreve
ENCODING 227
SWIDTH 523 0
DWIDTH 14 0
BBX 13 18 1 0
BITMAP
2040
30c0
1f80
0f00
0000
3f80
71c0
60e0
00e0
00e0
03e0
1ee0
70e0
e0e0
e0e0
e0e0
f1f8
3e60
ENDCHAR
STARTCHAR adiaeresis
ENCODING 228
SWIDTH 523 0
DWIDTH 14 0
BBX 13 17 1 0
BITMAP
18c0
3de0
18c0
0000
3f80
71c0
60e0
00e0
00e0
03e0
1ee0
70e0
e0e0
e0e0
e0e0
f1f8
3e60
ENDCHAR
STARTCHAR lacute
ENCODING 229
SWIDTH 279 0
DWIDTH 7 0
BBX 8 25 0 0
BITMAP
03
07
0e
18
20
00
18
78
38
38
38
38
38
38
38
38
38
38
38
38
38
38
38
38
fe
ENDCHAR
STARTCHAR cacute
ENCODING 230
SWIDTH 496 0
DWIDTH 12 0
BBX 11 19 1 0
BITMAP
0060
00e0
01c0
0300
0400
0000
1f80
71c0
70c0
e000
e000
e000
e000
e000
e000
e000
7060
70c0
1f00
ENDCHAR
STARTCHAR ccedilla
ENCODING 231
SWIDTH 496 0
DWIDTH 12 0
BBX 11 18 1 -5
BITMAP
1f80
71c0
70c0
e000
e000
e000
e000
e000
e000
e000
7060
70c0
1f00
0200
0600
0300
0300
0e00
ENDCHAR
STARTCHAR ccaron
ENCODING 232
SWIDTH 496 0
DWIDTH 12 0
BBX 11 18 1 0
BITMAP
30c0
1980
0f00
0600
0000
1f80
71c0
70c0
e000
e000
e000
e000
e000
e000
e000
7060
70c0
1f00
ENDCHAR
STARTCHAR eacute
ENCODING 233
SWIDTH 514 0
DWIDTH 13 0
BBX 11 19 1 0
BITMAP
0180
0380
0700
0c00
1000
0000
1f00
71c0
71c0
e0e0
e0e0
ffe0
e000
e000
e000
e000
7060
70c0
1f00
ENDCHAR
STARTCHAR eogonek
ENCODING 234
SWIDTH 514 0
DWIDTH 13 0
BBX 11 18 1 -5
BITMAP
1f00
71c0
71c0
e0e0
e0e0
ffe0
e000
e000
e000
e000
7060
70c0
1f00
0200
0400
0c00
0c00
0700
ENDCHAR
STARTCHAR ediaeresis
ENCODING 235
SWIDTH 514 0
DWIDTH 13 0
BBX 11 17 1 0
BITMAP
3180
7bc0
3180
0000
1f00
71c0
71c0
e0e0
e0e0
ffe0
e000
e000
e000
e000
7060
70c0
1f00
ENDCHAR
STARTCHAR ecaron
ENCODING 236
SWIDTH 514 0
DWIDTH 13 0
BBX 11 18 1 0
BITMAP
30c0
1980
0f00
0600
0000
1f00
71c0
71c0
e0e0
e0e0
ffe0
e000
e000
e000
e000
7060
70c0
1f00
ENDCHAR
STARTCHAR iacute
ENCODING 237
SWIDTH 291 0
DWIDTH 7 0
BBX 7 19 0 0
BITMAP
0c
1c
38
60
80
00
18
78
38
38
38
38
38
38
38
38
38
38
fe
ENDCHAR
STARTCHAR icircumflex
ENCODING 238
SWIDTH 291 0
DWIDTH 7 0
BBX 8 18 0 0
BITMAP
18
3c
66
c3
00
18
78
38
38
38
38
38
38
38
38
38
38
fe
ENDCHAR
STARTCHAR dcaron
ENCODING 239
SWIDTH 760 0
DWIDTH 19 0
BBX 17 21 1 0
BITMAP
000300
000780
003380
00f300
007200
007400
007000
007000
1f7000
70f000
707000
e07000
e07000
e07000
e07000
e07000
e07000
e07000
707000
70f000
1f3800
ENDCHAR
STARTCHAR dstroke
ENCODING 240
SWIDTH 680 0
DWIDTH 17 0
BBX 15 19 1 0
BITMAP
0030
00f0
0070
03fe
03fe
0070
1f70
70f0
7070
e070
e070
e070
e070
e070
e070
e070
7070
70f0
1f38
ENDCHAR
STARTCHAR nacute
ENCODING 241
SWIDTH 619 0
DWIDTH 15 0
BBX 16 19 0 0
BITMAP
0018
0038
0070
00c0
0100
0000
18f0
7b38
3c1c
381c
381c
381c
381c
381c
381c
381c
381c
381c
fe7f
ENDCHAR
STARTCHAR ncaron
ENCODING 242
SWIDTH 619 0
DWIDTH 15 0
BBX 16 18 0 0
BITMAP
0c30
0660
03c0
0180
0000
18f0
7b38
3c1c
381c
381c
381c
381c
381c
381c
381c
381c
381c
fe7f
ENDCHAR
STARTCHAR oacute
ENCODING 243
SWIDTH 577 0
DWIDTH 14 0
BBX 12 19 1 0
BITMAP
0180
0380
0700
0c00
1000
0000
1f80
70e0
70e0
e070
e070
e070
e070
e070
e070
e070
70e0
70e0
1f80
ENDCHAR
STARTCHAR ocircumflex
ENCODING 244
SWIDTH 577 0
DWIDTH 14 0
BBX 12 18 1 0
BITMAP
0600
0f00
1980
30c0
0000
1f80
70e0
70e0
e070
e070
e070
e070
e070
e070
e070
70e0
70e0
1f80
ENDCHAR
STARTCHAR odoubleacute
ENCODING 245
SWIDTH 577 0
DWIDTH 14 0
BBX 12 19 1 0
BITMAP
0cc0
0cc0
1980
1980
1100
0000
1f80
70e0
70e0
e070
e070
e070
e070
e070
e070
e070
70e0
70e0
1f80
ENDCHAR
STARTCHAR odiaeresis
ENCODING 246
SWIDTH 577 0
DWIDTH 14 0
BBX 12 17 1 0
BITMAP
3180
7bc0
3180
0000
1f80
70e0
70e0
e070
e070
e070
e070
e070
e070
e070
70e0
70e0
1f80
ENDCHAR
STARTCHAR division
ENCODING 247
SWIDTH 570 0
DWIDTH 14 0
BBX 12 12 1 0
BITMAP
0600
0f00
0600
0000
0000
fff0
fff0
0000
0000
0600
0f00
0600
ENDCHAR
STARTCHAR rcaron
ENCODING 248
SWIDTH 389 0
DWIDTH 10 0
BBX 10 18 0 0
BITMAP
30c0
1980
0f00
0600
0000
1980
7bc0
3d80
3800
3800
3800
3800
3800
3800
3800
3800
3800
fe00
ENDCHAR
STARTCHAR uring
ENCODING 249
SWIDTH 606 0
DWIDTH 15 0
BBX 14 19 0 0
BITMAP
0700
0d80
0880
0d80
0700
0000
3018
f078
7038
7038
7038
7038
7038
7038
7038
7038
7078
39b8
1e3c
ENDCHAR
STARTCHAR uacute
ENCODING 250
SWIDTH 606 0
DWIDTH 15 0
BBX 14 19 1 0
BITMAP
0060
00e0
01c0
0300
0400
0000
3018
f078
7038
7038
7038
7038
7038
7038
7038
7038
7078
39b8
1e3c
ENDCHAR
STARTCHAR udoubleacute
ENCODING 251
SWIDTH 606 0
DWIDTH 15 0
BBX 14 19 0 0
BITMAP
0660
0660
0cc0
0cc0
0880
0000
3018
f078
7038
7038
7038
7038
7038
7038
7038
7038
7078
39b8
1e3c
ENDCHAR
STARTCHAR udiaeresis
ENCODING 252
SWIDTH 606 0
DWIDTH 15 0
BBX 14 17 1 0
BITMAP
18c0
3de0
18c0
0000
3018
f078
7038
7038
7038
7038
7038
7038
7038
7038
7078
39b8
1e3c
ENDCHAR
STARTCHAR yacute
ENCODING 253
SWIDTH 506 0
DWIDTH 13 0
BBX 13 24 0 -5
BITMAP
0060
00e0
01c0
0300
0400
0000
f838
7010
7010
3820
3820
1c40
1c40
1c40
0e80
0e80
0700
0700
0600
0600
0400
cc00
f800
7000
ENDCHAR
STARTCHAR tcedilla
ENCODING 254
SWIDTH 344 0
DWIDTH 9 0
BBX 8 21 0 -5
BITMAP
08
18
38
ff
38
38
38
38
38
38
38
38
38
38
39
1e
08
18
0c
0c
38
ENDCHAR
STARTCHAR abovedot
ENCODING 255
SWIDTH 400 0
DWIDTH 10 0
BBX 4 3 3 14
BITMAP
60
f0
60
ENDCHAR
ENDFONT
